<svg width="360" height="360" viewBox="0 0 360 360" fill="none" xmlns="http://www.w3.org/2000/svg">
<rect width="360" height="360" fill="white"/>
<path d="M81.3752 36.8186C81.6814 36.8186 82.0056 36.8186 82.0056 36.4584C82.0056 36.0981 81.6814 36.0981 81.3752 36.0981H71.6304C71.3242 36.0981 71 36.0981 71 36.4584C71 36.8186 71.3242 36.8186 71.6304 36.8186H81.3752Z" fill="black"/>
<path d="M92.665 36.0801C91.6924 34.8553 91.4762 34.5851 90.9178 34.1348C89.9091 33.3242 88.9004 33 87.9818 33C85.8743 33 84.5054 34.9814 84.5054 37.0888C84.5054 39.1603 85.8383 41.1596 87.9097 41.1596C89.9812 41.1596 91.4762 39.5205 92.3588 38.0795C93.3315 39.3044 93.5476 39.5745 94.106 40.0249C95.1147 40.8354 96.1234 41.1596 97.0421 41.1596C99.1495 41.1596 100.518 39.1783 100.518 37.0708C100.518 34.9994 99.1855 33 97.1141 33C95.0427 33 93.5476 34.6391 92.665 36.0801ZM93.1334 36.6926C93.8719 35.3957 95.2048 33.5764 97.2402 33.5764C99.1495 33.5764 100.122 35.4497 100.122 37.0708C100.122 38.836 98.9154 40.295 97.3303 40.295C96.2855 40.295 95.475 39.5385 95.0967 39.1603C94.6464 38.6739 94.2321 38.1155 93.1334 36.6926ZM91.8905 37.4671C91.152 38.764 89.8191 40.5832 87.7837 40.5832C85.8743 40.5832 84.9017 38.7099 84.9017 37.0888C84.9017 35.3236 86.1085 33.8646 87.6936 33.8646C88.7383 33.8646 89.5489 34.6211 89.9271 34.9994C90.3775 35.4857 90.7917 36.0441 91.8905 37.4671Z" fill="black"/>
<path d="M270.16 36.0801C269.187 34.8553 268.971 34.5851 268.412 34.1348C267.404 33.3242 266.395 33 265.476 33C263.369 33 262 34.9814 262 37.0888C262 39.1603 263.333 41.1596 265.404 41.1596C267.476 41.1596 268.971 39.5205 269.853 38.0795C270.826 39.3044 271.042 39.5745 271.601 40.0249C272.609 40.8354 273.618 41.1596 274.537 41.1596C276.644 41.1596 278.013 39.1783 278.013 37.0708C278.013 34.9994 276.68 33 274.609 33C272.537 33 271.042 34.6391 270.16 36.0801ZM270.628 36.6926C271.366 35.3957 272.699 33.5764 274.735 33.5764C276.644 33.5764 277.617 35.4497 277.617 37.0708C277.617 38.836 276.41 40.295 274.825 40.295C273.78 40.295 272.97 39.5385 272.591 39.1603C272.141 38.6739 271.727 38.1155 270.628 36.6926ZM269.385 37.4671C268.647 38.764 267.314 40.5832 265.278 40.5832C263.369 40.5832 262.396 38.7099 262.396 37.0888C262.396 35.3236 263.603 33.8646 265.188 33.8646C266.233 33.8646 267.043 34.6211 267.422 34.9994C267.872 35.4857 268.286 36.0441 269.385 37.4671Z" fill="black"/>
<path d="M92.3311 326.214C92.3311 324.719 92.241 323.26 91.5926 321.891C90.854 320.396 89.5572 320 88.6745 320C87.6298 320 86.3509 320.522 85.6845 322.017C85.1801 323.152 85 324.269 85 326.214C85 327.962 85.1261 329.276 85.7745 330.555C86.477 331.924 87.7199 332.357 88.6565 332.357C90.2236 332.357 91.1242 331.42 91.6466 330.375C92.295 329.024 92.3311 327.259 92.3311 326.214ZM88.6565 331.996C88.0801 331.996 86.9093 331.672 86.5671 329.709C86.3689 328.628 86.3689 327.259 86.3689 325.998C86.3689 324.521 86.3689 323.188 86.6571 322.125C86.9634 320.919 87.882 320.36 88.6565 320.36C89.341 320.36 90.3857 320.775 90.728 322.324C90.9621 323.35 90.9621 324.773 90.9621 325.998C90.9621 327.205 90.9621 328.574 90.764 329.673C90.4217 331.654 89.287 331.996 88.6565 331.996Z" fill="black"/>
<path d="M344.034 312.594C343.457 312.702 343.241 313.135 343.241 313.477C343.241 313.909 343.583 314.053 343.835 314.053C344.376 314.053 344.754 313.585 344.754 313.099C344.754 312.342 343.889 312 343.133 312C342.034 312 341.422 313.081 341.26 313.423C340.845 312.072 339.729 312 339.404 312C337.567 312 336.594 314.36 336.594 314.756C336.594 314.828 336.666 314.918 336.793 314.918C336.937 314.918 336.973 314.81 337.009 314.738C337.621 312.739 338.828 312.36 339.35 312.36C340.161 312.36 340.323 313.117 340.323 313.549C340.323 313.945 340.215 314.36 339.999 315.224L339.386 317.692C339.116 318.773 338.594 319.763 337.639 319.763C337.549 319.763 337.099 319.763 336.72 319.529C337.369 319.403 337.513 318.863 337.513 318.647C337.513 318.286 337.243 318.07 336.901 318.07C336.468 318.07 336 318.448 336 319.025C336 319.781 336.847 320.124 337.621 320.124C338.486 320.124 339.098 319.439 339.476 318.701C339.765 319.763 340.665 320.124 341.332 320.124C343.169 320.124 344.142 317.764 344.142 317.368C344.142 317.278 344.07 317.206 343.962 317.206C343.799 317.206 343.781 317.296 343.727 317.44C343.241 319.025 342.196 319.763 341.386 319.763C340.755 319.763 340.413 319.295 340.413 318.557C340.413 318.16 340.485 317.872 340.773 316.683L341.404 314.234C341.674 313.153 342.286 312.36 343.115 312.36C343.151 312.36 343.655 312.36 344.034 312.594Z" fill="black"/>
<path d="M29.177 143.206C29.7895 142.234 30.3478 141.801 31.2665 141.729C31.4466 141.711 31.5907 141.711 31.5907 141.387C31.5907 141.315 31.5547 141.207 31.3926 141.207C31.0683 141.207 30.2938 141.243 29.9696 141.243C29.4472 141.243 28.9069 141.207 28.4025 141.207C28.2584 141.207 28.0783 141.207 28.0783 141.549C28.0783 141.711 28.2404 141.729 28.3124 141.729C28.9789 141.783 29.0509 142.107 29.0509 142.324C29.0509 142.594 28.7988 143.008 28.7808 143.026L23.1249 151.996L21.864 142.288C21.864 141.765 22.8006 141.729 22.9988 141.729C23.269 141.729 23.4311 141.729 23.4311 141.387C23.4311 141.207 23.2329 141.207 23.1789 141.207C22.8727 141.207 22.5124 141.243 22.2062 141.243H21.1975C19.8826 141.243 19.3422 141.207 19.3242 141.207C19.2161 141.207 19 141.207 19 141.531C19 141.729 19.1261 141.729 19.4143 141.729C20.3329 141.729 20.387 141.891 20.441 142.342L21.882 153.455C21.936 153.834 21.936 153.888 22.1882 153.888C22.4044 153.888 22.4944 153.834 22.6745 153.545L29.177 143.206Z" fill="black"/>
<path d="M38.0827 157.886C38.0827 157.832 38.0827 157.796 37.7765 157.49C35.9753 155.671 34.9666 152.699 34.9666 149.024C34.9666 145.53 35.8132 142.522 37.9026 140.396C38.0827 140.234 38.0827 140.198 38.0827 140.144C38.0827 140.036 37.9927 140 37.9206 140C37.6865 140 36.2094 141.297 35.3268 143.062C34.4082 144.881 33.9939 146.809 33.9939 149.024C33.9939 150.627 34.2461 152.771 35.1827 154.698C36.2455 156.86 37.7225 158.03 37.9206 158.03C37.9927 158.03 38.0827 157.994 38.0827 157.886Z" fill="black"/>
<path d="M47.6254 146.16C47.049 146.268 46.8329 146.701 46.8329 147.043C46.8329 147.475 47.1751 147.619 47.4273 147.619C47.9677 147.619 48.3459 147.151 48.3459 146.665C48.3459 145.908 47.4813 145.566 46.7248 145.566C45.626 145.566 45.0136 146.647 44.8515 146.989C44.4372 145.638 43.3204 145.566 42.9962 145.566C41.1589 145.566 40.1863 147.925 40.1863 148.322C40.1863 148.394 40.2583 148.484 40.3844 148.484C40.5285 148.484 40.5645 148.376 40.6006 148.304C41.213 146.304 42.4198 145.926 42.9422 145.926C43.7527 145.926 43.9149 146.683 43.9149 147.115C43.9149 147.511 43.8068 147.925 43.5906 148.79L42.9782 151.258C42.708 152.339 42.1857 153.329 41.231 153.329C41.1409 153.329 40.6906 153.329 40.3124 153.095C40.9608 152.969 41.1049 152.429 41.1049 152.212C41.1049 151.852 40.8347 151.636 40.4925 151.636C40.0602 151.636 39.5919 152.014 39.5919 152.591C39.5919 153.347 40.4385 153.689 41.213 153.689C42.0776 153.689 42.69 153.005 43.0683 152.266C43.3565 153.329 44.2571 153.689 44.9236 153.689C46.7608 153.689 47.7335 151.33 47.7335 150.934C47.7335 150.844 47.6614 150.771 47.5534 150.771C47.3913 150.771 47.3732 150.862 47.3192 151.006C46.8329 152.591 45.7881 153.329 44.9776 153.329C44.3472 153.329 44.0049 152.861 44.0049 152.122C44.0049 151.726 44.077 151.438 44.3652 150.249L44.9956 147.799C45.2658 146.719 45.8782 145.926 46.7068 145.926C46.7428 145.926 47.2472 145.926 47.6254 146.16Z" fill="black"/>
<path d="M54.1895 149.024C54.1895 147.655 54.0094 145.422 53.0007 143.332C51.9379 141.171 50.4609 140 50.2628 140C50.1907 140 50.1007 140.036 50.1007 140.144C50.1007 140.198 50.1007 140.234 50.4069 140.54C52.2081 142.36 53.2168 145.332 53.2168 149.006C53.2168 152.501 52.3702 155.509 50.2808 157.634C50.1007 157.796 50.1007 157.832 50.1007 157.886C50.1007 157.994 50.1907 158.03 50.2628 158.03C50.497 158.03 51.974 156.734 52.8566 154.968C53.7752 153.131 54.1895 151.186 54.1895 149.024Z" fill="black"/>
<path d="M272.782 321.387C272.944 320.702 272.998 320.522 274.583 320.522C275.07 320.522 275.196 320.522 275.196 320.18C275.196 320 274.998 320 274.925 320C274.565 320 274.151 320.036 273.791 320.036H271.377C271.035 320.036 270.639 320 270.296 320C270.152 320 269.954 320 269.954 320.342C269.954 320.522 270.116 320.522 270.386 320.522C271.485 320.522 271.485 320.666 271.485 320.865C271.485 320.901 271.485 321.009 271.413 321.279L268.981 330.97C268.819 331.6 268.783 331.78 267.522 331.78C267.18 331.78 267 331.78 267 332.104C267 332.303 267.108 332.303 267.468 332.303H275.538C275.934 332.303 275.952 332.284 276.078 331.96L277.465 328.124C277.501 328.034 277.537 327.925 277.537 327.871C277.537 327.763 277.447 327.691 277.357 327.691C277.339 327.691 277.249 327.691 277.213 327.763C277.177 327.781 277.177 327.817 277.033 328.16C276.457 329.745 275.646 331.78 272.602 331.78H270.873C270.621 331.78 270.584 331.78 270.476 331.762C270.278 331.744 270.26 331.708 270.26 331.564C270.26 331.438 270.296 331.33 270.332 331.168L272.782 321.387Z" fill="black"/>
<path d="M36.0615 165.964C36.818 166.954 37.5565 167.441 37.7907 167.585C39.0336 168.395 40.1683 168.539 40.1864 168.539C40.4025 168.539 40.4025 168.323 40.4025 168.179C40.4025 167.873 40.3665 167.855 40.0423 167.783C38.277 167.369 36.764 166.306 35.9354 164.27C35.8634 164.054 35.8273 164 35.7013 164C35.5752 164 35.5211 164.108 35.5031 164.144C35.1969 164.937 34.2963 167.116 31.2702 167.801C31.054 167.855 31 167.873 31 168.179C31 168.323 31 168.539 31.2161 168.539C31.2522 168.539 32.387 168.377 33.5938 167.621C34.1342 167.26 34.7646 166.738 35.341 165.964L35.341 203.5C35.341 203.824 35.341 204.148 35.7013 204.148C36.0615 204.148 36.0615 203.824 36.0615 203.5L36.0615 165.964Z" fill="black"/>
<path d="M329.812 316.435C328.821 317.191 328.335 317.93 328.191 318.164C327.38 319.407 327.236 320.541 327.236 320.559C327.236 320.776 327.452 320.776 327.596 320.776C327.903 320.776 327.921 320.74 327.993 320.415C328.407 318.65 329.47 317.137 331.505 316.308C331.721 316.236 331.775 316.2 331.775 316.074C331.775 315.948 331.667 315.894 331.631 315.876C330.839 315.57 328.659 314.669 327.975 311.643C327.921 311.427 327.903 311.373 327.596 311.373C327.452 311.373 327.236 311.373 327.236 311.589C327.236 311.625 327.398 312.76 328.155 313.967C328.515 314.507 329.037 315.138 329.812 315.714H292.276C291.951 315.714 291.627 315.714 291.627 316.074C291.627 316.435 291.951 316.435 292.276 316.435H329.812Z" fill="black"/>
<path d="M91.4142 43.5858C90.6332 42.8047 89.3668 42.8047 88.5858 43.5858L75.8579 56.3137C75.0768 57.0948 75.0768 58.3611 75.8579 59.1421C76.6389 59.9232 77.9052 59.9232 78.6863 59.1421L90 47.8284L101.314 59.1421C102.095 59.9232 103.361 59.9232 104.142 59.1421C104.923 58.3611 104.923 57.0948 104.142 56.3137L91.4142 43.5858ZM271.414 43.5858C270.633 42.8047 269.367 42.8047 268.586 43.5858L255.858 56.3137C255.077 57.0948 255.077 58.3611 255.858 59.1421C256.639 59.9232 257.905 59.9232 258.686 59.1421L270 47.8284L281.314 59.1421C282.095 59.9232 283.361 59.9232 284.142 59.1421C284.923 58.3611 284.923 57.0948 284.142 56.3137L271.414 43.5858ZM270 315V317H272V315H270ZM90 315H88V317H90V315ZM268 45V315H272V45H268ZM270 313H90V317H270V313ZM92 315V45H88V315H92Z" fill="black"/>
</svg>
